# xmcd CD database file
#
# Track frame offsets:
#	150
#	29045
#	53944
#	72485
#	95599
#	115431
#	133425
#	154365
#	173448
#	195387
#	223499
#	252464
#	272294
#	289568
#	309976
#
# Disc length: 4408 seconds
#
# Revision: 2
# Processed by: cddbd v1.5.1PL0 Copyright (c) Steve Scherf et al.
# Submitted via: CDex 1.51
#
DISCID=eb11360f
DTITLE=偶像日劇1 - 偶像日劇1
DYEAR=1900
DGENRE=
TTITLE0=長假
TTITLE1=神啊!請多給我一點時間
TTITLE2=小報急先鋒
TTITLE3=手足情深
TTITLE4=最後之戀
TTITLE5=青澀時代
TTITLE6=惡作劇之吻
TTITLE7=將太的壽司
TTITLE8=天使之愛
TTITLE9=白色之戀
TTITLE10=處女之路
TTITLE11=網路情人
TTITLE12=戀戀情深
TTITLE13=麻辣教師GTO
TTITLE14=海灘男孩
EXTD=
EXTT0=
EXTT1=
EXTT2=
EXTT3=
EXTT4=
EXTT5=
EXTT6=
EXTT7=
EXTT8=
EXTT9=
EXTT10=
EXTT11=
EXTT12=
EXTT13=
EXTT14=
PLAYORDER=
